<svg width="176" height="123" viewBox="0 0 176 123" fill="none" xmlns="http://www.w3.org/2000/svg">
<path d="M48.4862 28.5342C46.9935 25.768 46.212 22.674 46.212 19.5307C46.212 16.3874 46.9935 13.2934 48.4862 10.5272L3.05917 94.6647C5.44665 90.2472 9.49089 86.9592 14.3022 85.5241C19.1135 84.0889 24.2978 84.6242 28.7145 87.0121C33.1313 89.3999 36.4187 93.4449 37.8536 98.257C39.2885 103.069 38.7534 108.254 36.3659 112.672L65.239 59.209L48.4862 28.5342Z" fill="#4CCCF4"/>
<path d="M173.128 28.5278C170.741 32.9453 166.696 36.2333 161.885 37.6684C157.074 39.1036 151.89 38.5683 147.473 36.1804C143.056 33.7926 139.769 29.7477 138.334 24.9355C136.899 20.1234 137.434 14.9383 139.821 10.5208L110.948 63.9322L127.547 94.3246C129.119 97.1207 129.956 100.27 129.978 103.478C130.001 106.686 129.208 109.847 127.675 112.665L173.135 28.5342L173.128 28.5278Z" fill="#FFB1CC"/>
<path d="M94.3816 94.6647L110.974 63.9322L81.7929 10.5208C83.2856 13.287 84.0671 16.381 84.0671 19.5243C84.0671 22.6676 83.2856 25.7616 81.7929 28.5278L65.2197 59.2026L94.2404 112.325C92.8214 109.593 92.0903 106.556 92.1104 103.477C92.1305 100.399 92.9013 97.3716 94.3559 94.6583L94.3816 94.6647Z" fill="#E1E600"/>
<path d="M81.7929 28.5278C80.1706 31.5345 77.7653 34.0463 74.8318 35.797C71.8983 37.5476 68.5459 38.4719 65.1299 38.4719C61.7139 38.4719 58.3615 37.5476 55.428 35.797C52.4945 34.0463 50.0892 31.5345 48.4669 28.5278L65.2261 59.2026L81.7929 28.5342V28.5278Z" fill="#43B800"/>
<path d="M110.974 63.9322L94.3816 94.6647C95.9841 91.6758 98.36 89.1724 101.261 87.4161C104.162 85.6599 107.481 84.7154 110.872 84.6813C114.263 84.6472 117.601 85.5247 120.536 87.2223C123.472 88.9198 125.898 91.375 127.56 94.331L110.974 63.9322Z" fill="#E1A000"/>
<path d="M19.7478 122.542C30.2014 122.542 38.6758 114.066 38.6758 103.61C38.6758 93.1551 30.2014 84.6794 19.7478 84.6794C9.29424 84.6794 0.819916 93.1551 0.819916 103.61C0.819916 114.066 9.29424 122.542 19.7478 122.542Z" fill="#4088CD"/>
<path d="M65.1492 38.4747C75.6028 38.4747 84.0771 29.9989 84.0771 19.5435C84.0771 9.08819 75.6028 0.612442 65.1492 0.612442C54.6956 0.612442 46.2212 9.08819 46.2212 19.5435C46.2212 29.9989 54.6956 38.4747 65.1492 38.4747Z" fill="#009148"/>
<path d="M111.064 122.542C121.517 122.542 129.992 114.066 129.992 103.61C129.992 93.1551 121.517 84.6794 111.064 84.6794C100.61 84.6794 92.1359 93.1551 92.1359 103.61C92.1359 114.066 100.61 122.542 111.064 122.542Z" fill="#FF7500"/>
<path d="M156.465 38.4747C166.919 38.4747 175.393 29.9989 175.393 19.5435C175.393 9.08819 166.919 0.612442 156.465 0.612442C146.012 0.612442 137.537 9.08819 137.537 19.5435C137.537 29.9989 146.012 38.4747 156.465 38.4747Z" fill="#9757AB"/>
</svg>
